<svg width="301" height="300" viewBox="0 0 301 300" fill="none" xmlns="http://www.w3.org/2000/svg">
<path d="M139.426 4.75538C146.777 1.71056 155.036 1.71056 162.387 4.75538L245.492 39.1786C252.843 42.2234 258.683 48.0636 261.728 55.4145L296.151 138.519C299.196 145.87 299.196 154.13 296.151 161.481L261.728 244.585C258.683 251.936 252.843 257.777 245.492 260.821L162.387 295.245C155.036 298.289 146.777 298.289 139.426 295.245L56.3207 260.821C48.9699 257.777 43.1297 251.936 40.0849 244.586L5.66163 161.481C2.61681 154.13 2.61681 145.87 5.66163 138.519L40.0848 55.4145C43.1297 48.0637 48.9699 42.2234 56.3207 39.1786L139.426 4.75538Z" fill="black"/>
<path d="M140.765 15.6558C147.258 12.9662 154.554 12.9662 161.047 15.6558L238.731 47.8335C245.224 50.5231 250.383 55.682 253.073 62.1753L285.25 139.859C287.94 146.352 287.94 153.648 285.25 160.141L253.073 237.825C250.383 244.318 245.224 249.477 238.731 252.167L161.047 284.344C154.554 287.034 147.258 287.034 140.765 284.344L63.0815 252.167C56.5883 249.477 51.4293 244.318 48.7397 237.825L16.562 160.141C13.8724 153.648 13.8724 146.352 16.562 139.859L48.7397 62.1753C51.4293 55.682 56.5883 50.5231 63.0815 47.8335L140.765 15.6558Z" fill="#171717" stroke="#373737" stroke-width="7"/>
</svg>
