<svg width="101" height="100" viewBox="0 0 101 100" fill="none" xmlns="http://www.w3.org/2000/svg">
<path d="M78.4272 57.9551C78.4272 58.5502 78.1622 59.1144 77.7042 59.4944L51.6906 81.0744C50.9501 81.6887 49.8772 81.6887 49.1367 81.0744L23.1232 59.4944C22.6651 59.1144 22.4001 58.5502 22.4001 57.9551L22.4001 42.0166C22.4001 40.323 24.3736 39.396 25.6771 40.4773L49.1367 59.9388C49.8772 60.553 50.9501 60.553 51.6906 59.9388L75.1503 40.4773C76.4538 39.396 78.4272 40.323 78.4272 42.0166L78.4272 57.9551Z" fill="black"/>
<path d="M60.1238 64.0031C60.1238 65.1077 59.2284 66.0031 58.1238 66.0031L42.7028 66.0031C41.5983 66.0031 40.7028 65.1077 40.7028 64.0031L40.7028 23.9616C40.7028 22.8571 41.5983 21.9616 42.7028 21.9616L58.1238 21.9616C59.2284 21.9616 60.1238 22.8571 60.1238 23.9616L60.1238 64.0031Z" fill="black"/>
</svg>
