<svg width="101" height="101" viewBox="0 0 101 101" fill="none" xmlns="http://www.w3.org/2000/svg">
<path d="M53.1284 83.332C51.524 84.5468 49.3032 84.5469 47.6987 83.332L47.5405 83.207L21.5269 61.6269C20.4963 60.772 19.8999 59.5021 19.8999 58.1631L19.8999 42.2246C19.8999 38.414 24.3402 36.3288 27.273 38.7617L38.2026 47.8291L38.2026 24.1699C38.2026 21.6847 40.2175 19.67 42.7026 19.6699L58.1235 19.6699C60.6088 19.6699 62.6235 21.6846 62.6235 24.1699L62.6235 47.8301L73.5542 38.7617C76.487 36.3288 80.9272 38.414 80.9272 42.2246L80.9272 58.1631C80.9272 59.5021 80.3309 60.772 79.3003 61.627L53.2866 83.207L53.1284 83.332Z" fill="#E9EAEE" stroke="black" stroke-width="5"/>
</svg>
