<svg width="301" height="301" viewBox="0 0 301 301" fill="none" xmlns="http://www.w3.org/2000/svg">
<path d="M135.668 10.7395C145.466 8.87937 155.527 8.87937 165.325 10.7395L259.109 28.5452C265.769 29.8095 270.977 35.0183 272.242 41.678L290.047 135.462C291.907 145.26 291.907 155.32 290.047 165.118L272.242 258.903C270.977 265.562 265.769 270.771 259.109 272.035L165.325 289.841C155.527 291.701 145.466 291.701 135.668 289.841L41.8843 272.035C35.2246 270.771 30.0158 265.562 28.7515 258.903L10.9458 165.118C9.08567 155.32 9.08567 145.26 10.9458 135.462L28.7515 41.678C30.0158 35.0183 35.2246 29.8095 41.8843 28.5452L135.668 10.7395Z" stroke="black" stroke-width="15"/>
<path d="M138.465 17.3826C146.422 15.9521 154.571 15.9521 162.528 17.3826L253.353 33.7097C260.346 34.9669 265.82 40.4412 267.077 47.4343L283.404 138.259C284.835 146.216 284.835 154.365 283.404 162.322L267.077 253.146C265.82 260.139 260.346 265.614 253.353 266.871L162.528 283.198C154.571 284.628 146.422 284.628 138.465 283.198L47.6406 266.871C40.6475 265.614 35.1732 260.139 33.916 253.146L17.5889 162.322C16.1584 154.365 16.1584 146.216 17.5889 138.259L33.916 47.4343C35.1732 40.4412 40.6475 34.9669 47.6406 33.7097L138.465 17.3826Z" fill="#252525" stroke="#373737" stroke-width="10"/>
<circle opacity="0.58" cx="150.496" cy="150.29" r="20.0559" fill="#373737"/>
</svg>
