<svg width="101" height="101" viewBox="0 0 101 101" fill="none" xmlns="http://www.w3.org/2000/svg">
<path d="M17.7031 52.9229C16.4883 51.3184 16.4883 49.0976 17.7031 47.4932L17.8281 47.335L39.4082 21.3213C40.2631 20.2907 41.5331 19.6943 42.8721 19.6943L58.8106 19.6943C62.6211 19.6944 64.7064 24.1346 62.2734 27.0674L53.2061 37.9971L76.8652 37.9971C79.3505 37.9971 81.3651 40.0119 81.3652 42.4971L81.3652 57.918C81.3652 60.4033 79.3505 62.418 76.8652 62.418L53.2051 62.418L62.2734 73.3486C64.7064 76.2814 62.6211 80.7217 58.8105 80.7217L42.8721 80.7217C41.5331 80.7217 40.2631 80.1253 39.4082 79.0947L17.8281 53.0811L17.7031 52.9229Z" fill="#E9EAEE" stroke="black" stroke-width="5"/>
</svg>
