<svg width="101" height="100" viewBox="0 0 101 100" fill="none" xmlns="http://www.w3.org/2000/svg">
<path d="M42.8721 78.0137C42.2769 78.0137 41.7127 77.7486 41.3328 77.2906L19.7527 51.277C19.1384 50.5366 19.1384 49.4636 19.7527 48.7232L41.3328 22.7096C41.7127 22.2516 42.2769 21.9865 42.8721 21.9865L58.8105 21.9865C60.5041 21.9865 61.4311 23.96 60.3498 25.2635L40.8884 48.7232C40.2741 49.4636 40.2741 50.5366 40.8884 51.277L60.3498 74.7367C61.4311 76.0402 60.5041 78.0137 58.8105 78.0137L42.8721 78.0137Z" fill="black"/>
<path d="M36.824 59.7103C35.7194 59.7103 34.824 58.8148 34.824 57.7103L34.824 42.2893C34.824 41.1847 35.7194 40.2893 36.824 40.2893L76.8655 40.2893C77.9701 40.2893 78.8655 41.1847 78.8655 42.2893L78.8655 57.7103C78.8655 58.8148 77.9701 59.7103 76.8655 59.7103L36.824 59.7103Z" fill="black"/>
</svg>
