<svg width="100" height="101" viewBox="0 0 100 101" fill="none" xmlns="http://www.w3.org/2000/svg">
<path d="M83.124 47.4932C84.3388 49.0976 84.3389 51.3184 83.124 52.9229L82.999 53.0811L61.4189 79.0947C60.564 80.1253 59.2941 80.7217 57.9551 80.7217L42.0166 80.7217C38.206 80.7217 36.1208 76.2814 38.5537 73.3486L47.6211 62.4189L23.9619 62.4189C21.4767 62.4189 19.462 60.4041 19.4619 57.9189L19.4619 42.498C19.4619 40.0128 21.4766 37.998 23.9619 37.998L47.6221 37.998L38.5537 27.0674C36.1208 24.1346 38.206 19.6944 42.0166 19.6943L57.9551 19.6943C59.2941 19.6943 60.564 20.2907 61.4189 21.3213L82.999 47.335L83.124 47.4932Z" fill="#E9EAEE" stroke="black" stroke-width="5"/>
</svg>
