<svg width="100" height="100" viewBox="0 0 100 100" fill="none" xmlns="http://www.w3.org/2000/svg">
<path d="M57.9551 21.9863C58.5502 21.9863 59.1144 22.2514 59.4944 22.7094L81.0744 48.723C81.6887 49.4634 81.6887 50.5364 81.0744 51.2768L59.4944 77.2904C59.1144 77.7484 58.5502 78.0135 57.9551 78.0135L42.0166 78.0135C40.323 78.0135 39.396 76.04 40.4773 74.7365L59.9388 51.2768C60.553 50.5364 60.553 49.4634 59.9388 48.723L40.4773 25.2633C39.396 23.9598 40.323 21.9863 42.0166 21.9863L57.9551 21.9863Z" fill="black"/>
<path d="M64.0031 40.2897C65.1077 40.2897 66.0031 41.1852 66.0031 42.2897L66.0031 57.7107C66.0031 58.8153 65.1077 59.7107 64.0031 59.7107L23.9616 59.7107C22.8571 59.7107 21.9616 58.8153 21.9616 57.7107L21.9616 42.2897C21.9616 41.1852 22.8571 40.2897 23.9616 40.2897L64.0031 40.2897Z" fill="black"/>
</svg>
