<svg width="101" height="100" viewBox="0 0 101 100" fill="none" xmlns="http://www.w3.org/2000/svg">
<path d="M22.5728 42.0449C22.5728 41.4498 22.8378 40.8856 23.2958 40.5056L49.3094 18.9256C50.0499 18.3113 51.1228 18.3113 51.8633 18.9256L77.8768 40.5056C78.3349 40.8856 78.5999 41.4498 78.5999 42.0449V57.9834C78.5999 59.677 76.6264 60.604 75.323 59.5227L51.8633 40.0612C51.1228 39.447 50.0499 39.447 49.3094 40.0612L25.8497 59.5227C24.5462 60.604 22.5728 59.677 22.5728 57.9834V42.0449Z" fill="black"/>
<path d="M40.8762 35.9969C40.8762 34.8923 41.7716 33.9969 42.8762 33.9969H58.2972C59.4017 33.9969 60.2972 34.8923 60.2972 35.9969V76.0384C60.2972 77.1429 59.4017 78.0384 58.2972 78.0384H42.8762C41.7716 78.0384 40.8762 77.1429 40.8762 76.0384V35.9969Z" fill="black"/>
</svg>
