<svg width="101" height="101" viewBox="0 0 101 101" fill="none" xmlns="http://www.w3.org/2000/svg">
<path d="M47.8716 17.084C49.476 15.8692 51.6968 15.8691 53.3013 17.084L53.4595 17.209L79.4731 38.7891C80.5037 39.644 81.1001 40.9139 81.1001 42.2529V58.1914C81.1001 62.002 76.6598 64.0872 73.7271 61.6543L62.7974 52.5869V76.2461C62.7974 78.7313 60.7825 80.746 58.2974 80.7461H42.8765C40.3912 80.7461 38.3765 78.7314 38.3765 76.2461V52.5859L27.4458 61.6543C24.513 64.0872 20.0728 62.002 20.0728 58.1914V42.2529C20.0728 40.9139 20.6691 39.644 21.6997 38.7891L47.7134 17.209L47.8716 17.084Z" fill="#E9EAEE" stroke="black" stroke-width="5"/>
</svg>
